<svg width="760" height="920" viewBox="0 0 760 920" fill="none" xmlns="http://www.w3.org/2000/svg" role="img" aria-labelledby="title desc">
  <title id="title">Retrato provisório da Dra. Rebeca Moura</title>
  <desc id="desc">Ilustração provisória para ser substituída por uma foto em alta resolução.</desc>
  <path d="M379 39C255 39 162 136 162 274c0 94 30 158 70 207-69 40-112 112-112 205v151h518V686c0-93-43-165-112-205 40-49 70-113 70-207C596 136 503 39 379 39Z" fill="#F4D7B9"/>
  <path d="M161 305C130 142 229 26 382 26c141 0 242 102 224 268-12-43-38-79-72-107-46-37-103-54-164-54-88 0-154 36-209 172Z" fill="#3B2418"/>
  <path d="M203 274c0 122 77 223 176 223s176-101 176-223c0-112-72-190-176-190S203 162 203 274Z" fill="#F7CFAE"/>
  <path d="M183 316c14-122 80-186 196-186 103 0 170 54 196 161 12-137-68-236-195-236-130 0-217 105-197 261Z" fill="#3B2418"/>
  <path d="M252 310c17-16 45-16 64 0" stroke="#3B2418" stroke-width="15" stroke-linecap="round"/>
  <path d="M444 310c17-16 45-16 64 0" stroke="#3B2418" stroke-width="15" stroke-linecap="round"/>
  <path d="M311 399c37 40 103 40 139 0" stroke="#7A3E22" stroke-width="18" stroke-linecap="round"/>
  <path d="M355 346c-9 22-14 41-1 55" stroke="#C88965" stroke-width="12" stroke-linecap="round"/>
  <path d="M189 482c40 49 104 82 190 82s150-33 190-82c84 39 138 116 138 218v184H52V700c0-102 53-179 137-218Z" fill="#F2C64D"/>
  <path d="M51 701c0-102 54-180 138-219 36 48 101 82 190 82s154-34 190-82c84 39 138 117 138 219v183H51V701Z" fill="#EBC75C"/>
  <path d="M133 884c25-143 120-221 246-221s221 78 246 221H133Z" fill="#9A9E5E"/>
  <path d="M78 884h604" stroke="#3B2418" stroke-width="18" stroke-linecap="round"/>
  <path d="M141 575c71 50 151 75 238 75s167-25 238-75" stroke="#FBF5E8" stroke-width="18" stroke-linecap="round"/>
  <path d="M157 178C76 303 103 493 239 560" stroke="#3B2418" stroke-width="70" stroke-linecap="round"/>
  <path d="M599 178c81 125 54 315-82 382" stroke="#3B2418" stroke-width="70" stroke-linecap="round"/>
  <path d="M208 107c87-80 236-95 328 7 50 56 67 127 61 192-46-111-125-167-238-167-74 0-123 23-151-32Z" fill="#4A2D1E"/>
  <circle cx="211" cy="341" r="42" fill="#F7CFAE"/>
  <circle cx="549" cy="341" r="42" fill="#F7CFAE"/>
  <path d="M279 490c59 42 143 42 202 0" stroke="#FBF5E8" stroke-width="16" stroke-linecap="round"/>
  <path d="M287 469c22 20 53 32 93 32 39 0 70-12 93-32" stroke="#7A3E22" stroke-width="10" stroke-linecap="round"/>
</svg>
